<?xml version="1.0" encoding="UTF-8" standalone="no"?>
<!-- Created with Inkscape (http://www.inkscape.org/) -->

<svg
   width="549.41119"
   height="200"
   viewBox="0 0 145.36504 52.916666"
   version="1.1"
   id="svg5"
   inkscape:version="1.2.2 (b0a8486541, 2022-12-01)"
   sodipodi:docname="lcax.svg"
   xmlns:inkscape="http://www.inkscape.org/namespaces/inkscape"
   xmlns:sodipodi="http://sodipodi.sourceforge.net/DTD/sodipodi-0.dtd"
   xmlns="http://www.w3.org/2000/svg"
   xmlns:svg="http://www.w3.org/2000/svg">
  <sodipodi:namedview
     id="namedview7"
     pagecolor="#ffffff"
     bordercolor="#000000"
     borderopacity="0.25"
     inkscape:showpageshadow="2"
     inkscape:pageopacity="0.0"
     inkscape:pagecheckerboard="0"
     inkscape:deskcolor="#d1d1d1"
     inkscape:document-units="mm"
     showgrid="false"
     inkscape:zoom="1.5893144"
     inkscape:cx="93.436516"
     inkscape:cy="127.41343"
     inkscape:window-width="3840"
     inkscape:window-height="2123"
     inkscape:window-x="0"
     inkscape:window-y="0"
     inkscape:window-maximized="1"
     inkscape:current-layer="text184" />
  <defs
     id="defs2">
    <rect
       x="-48.593575"
       y="236.10318"
       width="545.49121"
       height="79.758743"
       id="rect425" />
    <rect
       x="0"
       y="70.020859"
       width="200"
       height="88.840385"
       id="rect186" />
  </defs>
  <g
     inkscape:label="Layer 1"
     inkscape:groupmode="layer"
     id="layer1">
    <g
       aria-label="LCAx"
       transform="matrix(0.26458333,0,0,0.26458333,-0.53340573,-0.74146059)"
       id="text184"
       style="font-size:74.6667px;line-height:1;-inkscape-font-specification:sans-serif;text-align:center;text-anchor:middle;white-space:pre;shape-inside:url(#rect186);fill:#ffffff;stroke:#2e2e2e;stroke-width:4;stroke-linecap:round;stroke-linejoin:round">
      <g
         aria-label="LCAx Compare"
         transform="translate(51.041178,-165.33536)"
         id="text423"
         style="font-weight:bold;font-family:Rubik;-inkscape-font-specification:'Rubik Bold';text-align:end;text-anchor:end;shape-inside:url(#rect425);fill:#fefefe">
        <path
           d="m -40.468548,295.01775 q -0.821334,0 -1.344001,-0.52267 -0.522667,-0.52266 -0.522667,-1.344 v -48.53335 q 0,-0.82134 0.522667,-1.34401 0.522667,-0.52266 1.344001,-0.52266 h 9.856005 q 0.746667,0 1.269334,0.52266 0.597333,0.52267 0.597333,1.34401 v 39.12535 h 22.5493443 q 0.8213337,0 1.3440006,0.59733 0.5973336,0.52267 0.5973336,1.344 v 7.46667 q 0,0.82134 -0.5973336,1.344 -0.5226669,0.52267 -1.3440006,0.52267 z"
           style="fill:#000000;stroke:none"
           id="path1280" />
        <path
           d="m 23.035553,295.76442 q -7.093336,0 -12.170672,-2.31467 -5.0026693,-2.31467 -7.840004,-6.79467 -2.76266794,-4.48 -3.06133475,-11.12534 -0.0746667,-3.06134 -0.0746667,-6.57067 0,-3.50934 0.0746667,-6.72 0.29866681,-6.49601 3.13600145,-10.97601 2.8373347,-4.55467 7.9146703,-6.86934 5.077336,-2.38933 12.021339,-2.38933 4.928003,0 9.109338,1.26933 4.181335,1.19467 7.317337,3.58401 3.136001,2.31466 4.853335,5.67467 1.792001,3.28533 1.866668,7.46667 0.07467,0.672 -0.448,1.12 -0.448,0.448 -1.120001,0.448 H 34.534225 q -0.970667,0 -1.493334,-0.37334 -0.522667,-0.448 -0.896,-1.568 -1.045334,-3.95733 -3.434668,-5.376 -2.314668,-1.49333 -5.749336,-1.49333 -4.106669,0 -6.496004,2.31466 -2.389334,2.24 -2.613334,7.54134 -0.224,6.12267 0,12.54401 0.224,5.30133 2.613334,7.616 2.389335,2.24 6.496004,2.24 3.434668,0 5.824002,-1.49333 2.389335,-1.49334 3.360002,-5.37601 0.298667,-1.12 0.821334,-1.49333 0.597333,-0.448 1.568,-0.448 H 44.61423 q 0.672001,0 1.120001,0.448 0.522667,0.448 0.448,1.12 -0.07467,4.18134 -1.866668,7.54134 -1.717334,3.28533 -4.853335,5.67467 -3.136002,2.31466 -7.317337,3.584 -4.181335,1.19467 -9.109338,1.19467 z"
           style="fill:#000000;stroke:none"
           id="path1282" />
        <path
           d="m 50.354226,295.01775 q -0.597334,0 -1.120001,-0.448 -0.448,-0.52267 -0.448,-1.12 0,-0.37334 0.07467,-0.672 l 17.546675,-47.93602 q 0.224,-0.82134 0.896,-1.41867 0.746667,-0.672 2.016001,-0.672 H 80.37024 q 1.269334,0 1.941334,0.672 0.746667,0.59733 0.970667,1.41867 l 17.472009,47.93602 q 0.14933,0.29866 0.14933,0.672 0,0.59733 -0.52266,1.12 -0.448004,0.448 -1.120004,0.448 h -9.184005 q -1.12,0 -1.717334,-0.52267 -0.522667,-0.59733 -0.672,-1.04533 l -2.912002,-7.61601 H 64.839566 l -2.837335,7.61601 q -0.149333,0.448 -0.672,1.04533 -0.522667,0.52267 -1.792001,0.52267 z m 17.546675,-19.93601 h 13.888006 l -7.01867,-19.71201 z"
           style="fill:#000000;stroke:none"
           id="path1284" />
        <path
           d="m 104.41289,295.01775 q -0.672,0 -1.19467,-0.448 -0.448,-0.52267 -0.448,-1.19467 0,-0.224 0.0747,-0.52267 0.0747,-0.37333 0.29866,-0.672 l 12.46934,-17.09867 -11.34934,-16.05334 q -0.224,-0.29867 -0.37333,-0.59734 -0.0747,-0.29866 -0.0747,-0.59733 0,-0.672 0.52267,-1.12 0.52267,-0.52267 1.19467,-0.52267 h 9.10933 q 0.97067,0 1.41867,0.448 0.52267,0.448 0.74667,0.82134 l 6.944,9.632 6.86934,-9.55734 q 0.29867,-0.37333 0.74667,-0.82133 0.52266,-0.52267 1.49333,-0.52267 h 8.736 q 0.672,0 1.12,0.52267 0.52267,0.448 0.52267,1.12 0,0.29867 -0.0747,0.59733 -0.0747,0.29867 -0.29866,0.59734 l -11.64801,16.05334 12.61867,17.09867 q 0.29867,0.29867 0.37334,0.59734 0.0747,0.29866 0.0747,0.59733 0,0.672 -0.52266,1.19467 -0.448,0.448 -1.19467,0.448 h -9.48267 q -0.896,0 -1.344,-0.37333 -0.448,-0.448 -0.74667,-0.82134 l -7.54134,-10.22934 -7.616,10.22934 q -0.29867,0.29867 -0.74667,0.74667 -0.448,0.448 -1.41866,0.448 z"
           style="fill:#000000;stroke:none"
           id="path1286" />
        <path
           d="m 188.0395,295.76442 q -7.09334,0 -12.17067,-2.31467 -5.00267,-2.31467 -7.84,-6.79467 -2.76267,-4.48 -3.06134,-11.12534 -0.0747,-3.06134 -0.0747,-6.57067 0,-3.50934 0.0747,-6.72 0.29867,-6.49601 3.136,-10.97601 2.83734,-4.55467 7.91467,-6.86934 5.07734,-2.38933 12.02134,-2.38933 4.928,0 9.10934,1.26933 4.18133,1.19467 7.31734,3.58401 3.136,2.31466 4.85333,5.67467 1.792,3.28533 1.86667,7.46667 0.0747,0.672 -0.448,1.12 -0.448,0.448 -1.12,0.448 h -10.08001 q -0.97066,0 -1.49333,-0.37334 -0.52267,-0.448 -0.896,-1.568 -1.04533,-3.95733 -3.43467,-5.376 -2.31467,-1.49333 -5.74934,-1.49333 -4.10666,0 -6.496,2.31466 -2.38933,2.24 -2.61333,7.54134 -0.224,6.12267 0,12.54401 0.224,5.30133 2.61333,7.616 2.38934,2.24 6.496,2.24 3.43467,0 5.82401,-1.49333 2.38933,-1.49334 3.36,-5.37601 0.29867,-1.12 0.82133,-1.49333 0.59734,-0.448 1.568,-0.448 h 10.08001 q 0.672,0 1.12,0.448 0.52267,0.448 0.448,1.12 -0.0747,4.18134 -1.86667,7.54134 -1.71733,3.28533 -4.85333,5.67467 -3.13601,2.31466 -7.31734,3.584 -4.18134,1.19467 -9.10934,1.19467 z"
           style="fill:#000000;stroke:none"
           id="path1288" />
        <path
           d="m 236.57282,295.76442 q -6.272,0 -10.60267,-2.016 -4.25601,-2.01601 -6.57067,-5.74934 -2.24,-3.808 -2.53867,-9.03467 -0.0747,-1.49334 -0.0747,-3.36 0,-1.94134 0.0747,-3.36001 0.29867,-5.30133 2.688,-9.03467 2.38933,-3.73333 6.64534,-5.74933 4.33067,-2.016 10.37867,-2.016 6.12267,0 10.37867,2.016 4.33067,2.016 6.72,5.74933 2.38934,3.73334 2.688,9.03467 0.0747,1.41867 0.0747,3.36001 0,1.86666 -0.0747,3.36 -0.29866,5.22667 -2.61333,9.03467 -2.24,3.73333 -6.57067,5.74934 -4.256,2.016 -10.60267,2.016 z m 0,-9.10934 q 3.36,0 4.85333,-2.016 1.568,-2.016 1.792,-6.04801 0.0747,-1.12 0.0747,-2.98666 0,-1.86667 -0.0747,-2.98667 -0.224,-3.95734 -1.792,-5.97334 -1.49333,-2.09067 -4.85333,-2.09067 -3.28534,0 -4.85334,2.09067 -1.568,2.016 -1.71733,5.97334 -0.0747,1.12 -0.0747,2.98667 0,1.86666 0.0747,2.98666 0.14933,4.03201 1.71733,6.04801 1.568,2.016 4.85334,2.016 z"
           style="fill:#000000;stroke:none"
           id="path1290" />
        <path
           d="m 265.69285,295.01775 q -0.82134,0 -1.34401,-0.52267 -0.52266,-0.52266 -0.52266,-1.344 v -35.09335 q 0,-0.82133 0.52266,-1.344 0.52267,-0.52267 1.34401,-0.52267 h 8.13867 q 0.82133,0 1.344,0.52267 0.52266,0.52267 0.52266,1.344 v 2.53867 q 1.49334,-2.016 4.18134,-3.50934 2.688,-1.568 6.34667,-1.64266 8.58667,-0.14934 11.79734,6.496 1.71733,-2.83733 4.928,-4.62934 3.21067,-1.86666 7.01867,-1.86666 3.88267,0 6.944,1.792 3.136,1.71733 5.00267,5.376 1.86667,3.584 1.86667,9.33334 v 21.20534 q 0,0.82134 -0.59733,1.344 -0.52267,0.52267 -1.26934,0.52267 h -8.66134 q -0.82133,0 -1.41866,-0.52267 -0.52267,-0.52266 -0.52267,-1.344 V 272.4684 q 0,-2.61333 -0.74667,-4.10666 -0.74666,-1.568 -2.016,-2.24 -1.26933,-0.67201 -2.912,-0.67201 -1.344,0 -2.688,0.67201 -1.26933,0.672 -2.09067,2.24 -0.74666,1.49333 -0.74666,4.10666 v 20.68268 q 0,0.82134 -0.52267,1.344 -0.52267,0.52267 -1.344,0.52267 h -8.66134 q -0.82133,0 -1.344,-0.52267 -0.52267,-0.52266 -0.52267,-1.344 V 272.4684 q 0,-2.61333 -0.82133,-4.10666 -0.82134,-1.568 -2.09067,-2.24 -1.26933,-0.67201 -2.83733,-0.67201 -1.344,0 -2.688,0.67201 -1.26934,0.672 -2.09067,2.24 -0.74667,1.49333 -0.74667,4.032 v 20.75734 q 0,0.82134 -0.59733,1.344 -0.52267,0.52267 -1.344,0.52267 z"
           style="fill:#000000;stroke:none"
           id="path1292" />
        <path
           d="m 334.08759,309.20442 q -0.82133,0 -1.344,-0.52266 -0.52267,-0.52267 -0.52267,-1.34401 v -49.28002 q 0,-0.82133 0.52267,-1.344 0.52267,-0.52267 1.344,-0.52267 h 8.43734 q 0.74666,0 1.26933,0.52267 0.59734,0.52267 0.59734,1.344 v 2.76267 q 1.71733,-2.31467 4.55466,-3.808 2.83734,-1.568 7.01867,-1.568 3.73334,0 6.57067,1.19466 2.83734,1.12 4.85334,3.36001 2.016,2.24 3.136,5.45066 1.19467,3.21067 1.344,7.39201 0.0747,1.49333 0.0747,2.76267 0,1.26933 -0.0747,2.76266 -0.14933,4.03201 -1.26933,7.24267 -1.12,3.21067 -3.136,5.45067 -2.016,2.24 -4.92801,3.50934 -2.83733,1.19467 -6.57067,1.19467 -3.65866,0 -6.42133,-1.26934 -2.688,-1.344 -4.48,-3.73333 v 16.576 q 0,0.82134 -0.52267,1.34401 -0.52267,0.52266 -1.344,0.52266 z m 17.84534,-23.44534 q 2.53867,0 3.95734,-1.04534 1.41866,-1.04533 2.016,-2.83733 0.672,-1.792 0.82133,-3.95734 0.14934,-2.31466 0,-4.62933 -0.14933,-2.16534 -0.82133,-3.95734 -0.59734,-1.792 -2.016,-2.83733 -1.41867,-1.04534 -3.95734,-1.04534 -2.464,0 -3.95733,1.12001 -1.49334,1.04533 -2.16534,2.76266 -0.672,1.71734 -0.74666,3.73334 -0.0747,1.41867 -0.0747,2.76267 0,1.344 0.0747,2.83733 0.0747,1.86667 0.82133,3.50934 0.74667,1.568 2.24,2.61333 1.49333,0.97067 3.808,0.97067 z"
           style="fill:#000000;stroke:none"
           id="path1294" />
        <path
           d="m 390.98364,295.76442 q -4.032,0 -7.24267,-1.49334 -3.136,-1.568 -5.00267,-4.18133 -1.86666,-2.61334 -1.86666,-5.89867 0,-5.30134 4.33067,-8.36267 4.33066,-3.136 11.49867,-4.25601 l 9.33334,-1.41866 v -1.04534 q 0,-2.688 -1.12,-4.10667 -1.12001,-1.41866 -4.10667,-1.41866 -2.09067,0 -3.43467,0.82133 -1.26934,0.82133 -2.016,2.24 -0.672,0.97067 -1.86667,0.97067 h -8.36267 q -0.82133,0 -1.26933,-0.448 -0.44801,-0.52267 -0.37334,-1.19467 0,-1.344 0.97067,-3.06133 1.04533,-1.792 3.136,-3.50934 2.09067,-1.71733 5.376,-2.83733 3.28534,-1.12 7.91467,-1.12 4.85334,0 8.28801,1.12 3.43467,1.12 5.52533,3.136 2.16534,2.016 3.21067,4.77867 1.04534,2.688 1.04534,5.97333 v 22.69868 q 0,0.82134 -0.59734,1.344 -0.52267,0.52267 -1.26933,0.52267 h -8.66134 q -0.82133,0 -1.344,-0.52267 -0.52267,-0.52266 -0.52267,-1.344 v -2.61333 q -0.97066,1.41866 -2.61333,2.61333 -1.64267,1.19467 -3.88267,1.86667 -2.16533,0.74667 -5.07734,0.74667 z m 3.50934,-8.51201 q 2.16533,0 3.88267,-0.896 1.792,-0.97067 2.76267,-2.912 1.04533,-2.016 1.04533,-5.00267 v -1.04533 l -6.34667,1.12 q -3.50934,0.59733 -5.152,1.86667 -1.568,1.19466 -1.568,2.83733 0,1.26933 0.74666,2.16533 0.74667,0.896 1.94134,1.41867 1.19466,0.448 2.688,0.448 z"
           style="fill:#000000;stroke:none"
           id="path1296" />
        <path
           d="m 425.25568,295.01775 q -0.82133,0 -1.344,-0.52267 -0.52267,-0.52266 -0.52267,-1.344 v -35.09335 q 0,-0.74667 0.52267,-1.26933 0.52267,-0.59734 1.344,-0.59734 h 8.58667 q 0.82134,0 1.344,0.59734 0.52267,0.52266 0.52267,1.26933 v 2.98667 q 2.016,-2.31467 4.77867,-3.584 2.83733,-1.26934 6.34667,-1.26934 h 3.28533 q 0.74667,0 1.26934,0.52267 0.59733,0.52267 0.59733,1.344 v 7.69067 q 0,0.74667 -0.59733,1.344 -0.52267,0.52267 -1.26934,0.52267 h -7.24267 q -3.06133,0 -4.77867,1.71733 -1.64266,1.64267 -1.64266,4.70401 v 19.11467 q 0,0.82134 -0.59734,1.344 -0.52266,0.52267 -1.344,0.52267 z"
           style="fill:#000000;stroke:none"
           id="path1298" />
        <path
           d="m 474.87177,295.76442 q -8.81067,0 -14.03734,-4.77867 -5.22667,-4.77867 -5.45067,-14.18668 0,-0.52266 0,-1.344 0,-0.82133 0,-1.26933 0.224,-5.89867 2.61333,-10.08001 2.464,-4.256 6.72,-6.42133 4.33067,-2.24 10.08001,-2.24 6.57067,0 10.82667,2.61333 4.33067,2.61334 6.496,7.09334 2.16534,4.48 2.16534,10.22934 v 1.792 q 0,0.82133 -0.59733,1.344 -0.52267,0.52266 -1.26934,0.52266 H 468.5251 q 0,0.0747 0,0.224 0,0.14934 0,0.29867 0.0747,2.16534 0.74666,3.95734 0.672,1.792 2.09067,2.83733 1.41867,1.04534 3.43467,1.04534 1.49333,0 2.464,-0.448 1.04533,-0.52267 1.71733,-1.12001 0.67201,-0.672 1.04534,-1.12 0.672,-0.74666 1.04533,-0.896 0.448,-0.224 1.344,-0.224 h 9.25867 q 0.74667,0 1.19467,0.448 0.52267,0.37334 0.448,1.12 -0.0747,1.26934 -1.26933,3.06134 -1.19467,1.792 -3.50934,3.584 -2.24,1.71734 -5.67467,2.83734 -3.43467,1.12 -7.98933,1.12 z m -6.34667,-24.11735 h 12.61867 v -0.14933 q 0,-2.38934 -0.74667,-4.18134 -0.672,-1.792 -2.16533,-2.76267 -1.41867,-0.97066 -3.43467,-0.97066 -2.016,0 -3.43467,0.97066 -1.344,0.97067 -2.09067,2.76267 -0.74666,1.792 -0.74666,4.18134 z"
           style="fill:#000000;stroke:none"
           id="path1300" />
      </g>
    </g>
  </g>
</svg>
